<?xml version="1.0" standalone="no"?>
<!DOCTYPE svg PUBLIC "-//W3C//DTD SVG 1.1//EN" "http://www.w3.org/Graphics/SVG/1.1/DTD/svg11.dtd">
<svg xmlns:xlink="http://www.w3.org/1999/xlink" width="24.765ex" height="3.509ex" style="vertical-align: -1.171ex;" viewBox="0 -1006.6 10662.6 1510.9" xmlns="http://www.w3.org/2000/svg">
<defs>
<path stroke-width="10" id="E1-MJMAINB-53" d="M64 493Q64 582 120 636T264 696H272Q280 697 285 697Q380 697 454 645L480 669Q484 672 488 676T495 683T500 688T504 691T508 693T511 695T514 696T517 697T522 697Q536 697 539 691T542 652V577Q542 557 542 532T543 500Q543 472 540 465T524 458H511H505Q489 458 485 461T479 478Q472 529 449 564T393 614T336 634T287 639Q228 639 203 610T177 544Q177 517 195 493T247 457Q253 454 343 436T475 391Q574 326 574 207V200Q574 163 559 120Q517 12 389 -9Q380 -10 346 -10Q308 -10 275 -5T221 7T184 22T160 35T151 40L126 17Q122 14 118 10T111 3T106 -2T102 -5T98 -7T95 -9T92 -10T89 -11T84 -11Q70 -11 67 -4T64 35V108Q64 128 64 153T63 185Q63 203 63 211T69 223T77 227T94 228H100Q118 228 122 225T126 205Q130 125 193 88T345 51Q408 51 434 82T460 157Q460 196 439 221T388 257Q384 259 305 276T221 295Q155 313 110 366T64 493Z"></path>
<path stroke-width="10" id="E1-MJMATHI-6B" d="M121 647Q121 657 125 670T137 683Q138 683 209 688T282 694Q294 694 294 686Q294 679 244 477Q194 279 194 272Q213 282 223 291Q247 309 292 354T362 415Q402 442 438 442Q468 442 485 423T503 369Q503 344 496 327T477 302T456 291T438 288Q418 288 406 299T394 328Q394 353 410 369T442 390L458 393Q446 405 434 405H430Q398 402 367 380T294 316T228 255Q230 254 243 252T267 246T293 238T320 224T342 206T359 180T365 147Q365 130 360 106T354 66Q354 26 381 26Q429 26 459 145Q461 153 479 153H483Q499 153 499 144Q499 139 496 130Q455 -11 378 -11Q333 -11 305 15T277 90Q277 108 280 121T283 145Q283 167 269 183T234 206T200 217T182 220H180Q168 178 159 139T145 81T136 44T129 20T122 7T111 -2Q98 -11 83 -11Q66 -11 57 -1T48 16Q48 26 85 176T158 471L195 616Q196 629 188 632T149 637H144Q134 637 131 637T124 640T121 647Z"></path>
<path stroke-width="10" id="E1-MJMAIN-3D" d="M56 347Q56 360 70 367H707Q722 359 722 347Q722 336 708 328L390 327H72Q56 332 56 347ZM56 153Q56 168 72 173H708Q722 163 722 153Q722 140 707 133H70Q56 140 56 153Z"></path>
<path stroke-width="10" id="E1-MJMAINB-48" d="M400 0Q376 3 226 3Q75 3 51 0H39V62H147V624H39V686H51Q75 683 226 683Q376 683 400 686H412V624H304V388H595V624H487V686H499Q523 683 673 683Q824 683 848 686H860V624H752V62H860V0H848Q824 3 674 3Q523 3 499 0H487V62H595V326H304V62H412V0H400Z"></path>
<path stroke-width="10" id="E1-MJMAINB-50" d="M400 0Q376 3 226 3Q75 3 51 0H39V62H147V624H39V686H253Q435 686 470 685T536 678Q585 668 621 648T675 605T705 557T718 514T721 483T718 451T704 409T673 362T616 322T530 293Q500 288 399 287H304V62H412V0H400ZM553 475Q553 554 537 582T459 622Q451 623 373 624H298V343H372Q457 344 480 350Q527 362 540 390T553 475Z"></path>
<path stroke-width="10" id="E1-MJMAIN-2223" d="M139 -249H137Q125 -249 119 -235V251L120 737Q130 750 139 750Q152 750 159 735V-235Q151 -249 141 -249H139Z"></path>
<path stroke-width="10" id="E1-MJMAIN-2212" d="M84 237T84 250T98 270H679Q694 262 694 250T679 230H98Q84 237 84 250Z"></path>
<path stroke-width="10" id="E1-MJMAIN-31" d="M213 578L200 573Q186 568 160 563T102 556H83V602H102Q149 604 189 617T245 641T273 663Q275 666 285 666Q294 666 302 660V361L303 61Q310 54 315 52T339 48T401 46H427V0H416Q395 3 257 3Q121 3 100 0H88V46H114Q136 46 152 46T177 47T193 50T201 52T207 57T213 61V578Z"></path>
<path stroke-width="10" id="E1-MJMAIN-54" d="M36 443Q37 448 46 558T55 671V677H666V671Q667 666 676 556T685 443V437H645V443Q645 445 642 478T631 544T610 593Q593 614 555 625Q534 630 478 630H451H443Q417 630 414 618Q413 616 413 339V63Q420 53 439 50T528 46H558V0H545L361 3Q186 1 177 0H164V46H194Q264 46 283 49T309 63V339V550Q309 620 304 625T271 630H244H224Q154 630 119 601Q101 585 93 554T81 486T76 443V437H36V443Z"></path>
<path stroke-width="10" id="E1-MJMAIN-2B" d="M56 237T56 250T70 270H369V420L370 570Q380 583 389 583Q402 583 409 568V270H707Q722 262 722 250T707 230H409V-68Q401 -82 391 -82H389H387Q375 -82 369 -68V230H70Q56 237 56 250Z"></path>
<path stroke-width="10" id="E1-MJMAINB-52" d="M394 0Q370 3 222 3Q75 3 51 0H39V62H147V624H39V686H234Q256 686 299 686T362 687Q479 687 554 669T681 593Q716 550 716 497Q716 390 568 338Q569 337 572 336T577 332Q605 317 623 300T650 258T662 218T668 172Q678 98 689 76Q707 40 748 40Q770 40 780 54T795 88T801 111Q805 117 827 117H831Q846 117 852 113T858 92Q857 78 852 63T834 30T797 1T739 -11Q630 -11 580 12T511 87Q506 104 506 168Q506 170 506 178T507 194Q507 289 438 313Q424 318 356 318H298V62H406V0H394ZM366 369Q459 370 490 381Q548 402 548 476V498V517Q548 578 513 600Q479 624 392 624H358H298V369H366Z"></path>
</defs>
<g stroke="currentColor" fill="currentColor" stroke-width="0" transform="matrix(1 0 0 -1 0 0)">
 <use xlink:href="#E1-MJMAINB-53" x="0" y="0"></use>
 <use transform="scale(0.707)" xlink:href="#E1-MJMATHI-6B" x="910" y="-217"></use>
 <use xlink:href="#E1-MJMAIN-3D" x="1393" y="0"></use>
<g transform="translate(2454,0)">
 <use xlink:href="#E1-MJMAINB-48" x="0" y="0"></use>
 <use transform="scale(0.707)" xlink:href="#E1-MJMATHI-6B" x="1279" y="-217"></use>
</g>
<g transform="translate(3831,0)">
 <use xlink:href="#E1-MJMAINB-50" x="0" y="0"></use>
<g transform="translate(791,-193)">
 <use transform="scale(0.707)" xlink:href="#E1-MJMATHI-6B" x="0" y="0"></use>
 <use transform="scale(0.707)" xlink:href="#E1-MJMAIN-2223" x="526" y="0"></use>
 <use transform="scale(0.707)" xlink:href="#E1-MJMATHI-6B" x="809" y="0"></use>
 <use transform="scale(0.707)" xlink:href="#E1-MJMAIN-2212" x="1335" y="0"></use>
 <use transform="scale(0.707)" xlink:href="#E1-MJMAIN-31" x="2118" y="0"></use>
</g>
</g>
<g transform="translate(6577,0)">
 <use xlink:href="#E1-MJMAINB-48" x="0" y="0"></use>
 <use transform="scale(0.707)" xlink:href="#E1-MJMAIN-54" x="1279" y="598"></use>
 <use transform="scale(0.707)" xlink:href="#E1-MJMATHI-6B" x="1279" y="-371"></use>
</g>
 <use xlink:href="#E1-MJMAIN-2B" x="8318" y="0"></use>
<g transform="translate(9323,0)">
 <use xlink:href="#E1-MJMAINB-52" x="0" y="0"></use>
 <use transform="scale(0.707)" xlink:href="#E1-MJMATHI-6B" x="1226" y="-217"></use>
</g>
</g>
</svg>